<svg width="528" height="410" viewBox="0 0 528 410" fill="none" xmlns="http://www.w3.org/2000/svg">
<g clip-path="url(#clip0_1_2)">
<path d="M475.997 259.624H60.9921C53.4483 259.624 46.2134 262.621 40.8791 267.955C35.5448 273.289 32.548 280.524 32.548 288.068C32.548 295.612 35.5448 302.847 40.8791 308.181C46.2134 313.515 53.4483 316.512 60.9921 316.512H475.997C480.037 316.513 484.03 315.652 487.71 313.985C491.39 312.319 494.671 309.887 497.336 306.851C498.542 305.478 499.614 303.994 500.538 302.417C501.254 301.209 501.875 299.947 502.394 298.642C504.127 294.327 504.775 289.652 504.28 285.029C503.786 280.405 502.165 275.973 499.559 272.122C496.954 268.27 493.443 265.117 489.335 262.938C485.227 260.759 480.647 259.621 475.997 259.624Z" fill="#CCCCCC"/>
<path d="M502.787 301.124C493.574 312.04 483.608 322.3 472.964 331.827H64.0359C53.3916 322.3 43.4264 312.04 34.2131 301.124H502.787Z" fill="#212121"/>
<path d="M302.735 194.782H233.884C233.513 194.778 233.143 194.835 232.791 194.952C232.044 195.183 231.39 195.647 230.926 196.277C230.462 196.907 230.213 197.669 230.214 198.451V307.222H306.415V198.451C306.414 197.969 306.319 197.491 306.134 197.045C305.948 196.6 305.677 196.195 305.335 195.854C304.994 195.513 304.588 195.243 304.142 195.059C303.695 194.875 303.217 194.781 302.735 194.782ZM276.677 248.446C276.679 250.21 276.098 251.926 275.022 253.324C273.996 254.682 272.57 255.683 270.945 256.187C269.32 256.691 267.577 256.673 265.963 256.134C264.349 255.595 262.945 254.563 261.948 253.184C260.951 251.805 260.413 250.148 260.408 248.446V235.825C260.428 233.681 261.294 231.631 262.817 230.122C264.34 228.613 266.398 227.766 268.542 227.766C270.687 227.766 272.745 228.613 274.268 230.122C275.791 231.631 276.657 233.681 276.677 235.825V248.446Z" fill="#2F2E41"/>
<path d="M229.981 303.743V314.232C229.981 314.776 230.196 315.298 230.579 315.683C230.963 316.069 231.484 316.287 232.028 316.29H304.601C305.145 316.285 305.664 316.066 306.047 315.681C306.43 315.296 306.646 314.775 306.648 314.232V303.743H229.981Z" fill="#3F3D56"/>
<path d="M416.744 25.0402H122.441C119.912 25.0434 117.488 26.0487 115.699 27.8357C113.909 29.6228 112.902 32.046 112.896 34.5746V233.174C112.898 235.705 113.904 238.131 115.693 239.921C117.483 241.711 119.91 242.717 122.441 242.719H416.744C419.275 242.717 421.702 241.711 423.491 239.921C425.281 238.131 426.287 235.705 426.289 233.174V34.5746C426.283 32.046 425.275 29.6228 423.486 27.8357C421.697 26.0487 419.273 25.0435 416.744 25.0402Z" fill="black"/>
<path d="M414.284 31.9338H124.89C123.537 31.9368 122.239 32.4766 121.283 33.435C120.326 34.3933 119.789 35.6918 119.789 37.0457V230.724C119.791 232.076 120.33 233.372 121.286 234.329C122.242 235.285 123.538 235.823 124.89 235.825H414.284C415.636 235.823 416.932 235.285 417.888 234.329C418.844 233.372 419.383 232.076 419.385 230.724V37.0457C419.385 35.6918 418.848 34.3933 417.891 33.435C416.935 32.4766 415.638 31.9368 414.284 31.9338Z" fill="#FFC700"/>
<path d="M361.023 316.12L358.35 303.425C358.239 302.907 358.001 302.426 357.656 302.024C357.312 301.622 356.872 301.312 356.377 301.124C356.019 300.983 355.638 300.911 355.253 300.911H188.418C188.033 300.911 187.651 300.983 187.293 301.124C186.799 301.312 186.359 301.622 186.015 302.024C185.67 302.426 185.432 302.907 185.321 303.425L182.648 316.12C182.552 316.581 182.559 317.057 182.67 317.515C182.78 317.973 182.992 318.4 183.288 318.765C183.585 319.131 183.959 319.426 184.384 319.629C184.809 319.832 185.274 319.937 185.745 319.938H357.915C358.388 319.94 358.854 319.836 359.281 319.632C359.707 319.428 360.081 319.13 360.376 318.761C360.673 318.396 360.885 317.97 360.997 317.513C361.109 317.056 361.118 316.58 361.023 316.12Z" fill="#2F2E41"/>
<path d="M194.425 303.198H190.158C189.872 303.198 189.64 303.43 189.64 303.716V305.862C189.64 306.148 189.872 306.379 190.158 306.379H194.425C194.711 306.379 194.943 306.148 194.943 305.862V303.716C194.943 303.43 194.711 303.198 194.425 303.198Z" fill="#3F3D56"/>
<path d="M205.031 303.198H200.764C200.478 303.198 200.246 303.43 200.246 303.716V305.862C200.246 306.148 200.478 306.379 200.764 306.379H205.031C205.317 306.379 205.549 306.148 205.549 305.862V303.716C205.549 303.43 205.317 303.198 205.031 303.198Z" fill="#3F3D56"/>
<path d="M215.637 303.198H211.369C211.083 303.198 210.851 303.43 210.851 303.716V305.862C210.851 306.148 211.083 306.379 211.369 306.379H215.637C215.922 306.379 216.154 306.148 216.154 305.862V303.716C216.154 303.43 215.922 303.198 215.637 303.198Z" fill="#3F3D56"/>
<path d="M226.242 303.198H221.975C221.689 303.198 221.457 303.43 221.457 303.716V305.862C221.457 306.148 221.689 306.379 221.975 306.379H226.242C226.528 306.379 226.76 306.148 226.76 305.862V303.716C226.76 303.43 226.528 303.198 226.242 303.198Z" fill="#3F3D56"/>
<path d="M236.848 303.198H232.58C232.294 303.198 232.063 303.43 232.063 303.716V305.862C232.063 306.148 232.294 306.379 232.58 306.379H236.848C237.134 306.379 237.365 306.148 237.365 305.862V303.716C237.365 303.43 237.134 303.198 236.848 303.198Z" fill="#3F3D56"/>
<path d="M247.453 303.198H243.186C242.9 303.198 242.668 303.43 242.668 303.716V305.862C242.668 306.148 242.9 306.379 243.186 306.379H247.453C247.739 306.379 247.971 306.148 247.971 305.862V303.716C247.971 303.43 247.739 303.198 247.453 303.198Z" fill="#3F3D56"/>
<path d="M258.059 303.198H253.791C253.505 303.198 253.274 303.43 253.274 303.716V305.862C253.274 306.148 253.505 306.379 253.791 306.379H258.059C258.345 306.379 258.576 306.148 258.576 305.862V303.716C258.576 303.43 258.345 303.198 258.059 303.198Z" fill="#3F3D56"/>
<path d="M268.664 303.198H264.397C264.111 303.198 263.879 303.43 263.879 303.716V305.862C263.879 306.148 264.111 306.379 264.397 306.379H268.664C268.95 306.379 269.182 306.148 269.182 305.862V303.716C269.182 303.43 268.95 303.198 268.664 303.198Z" fill="#3F3D56"/>
<path d="M279.27 303.198H275.002C274.717 303.198 274.485 303.43 274.485 303.716V305.862C274.485 306.148 274.717 306.379 275.002 306.379H279.27C279.556 306.379 279.787 306.148 279.787 305.862V303.716C279.787 303.43 279.556 303.198 279.27 303.198Z" fill="#3F3D56"/>
<path d="M289.875 303.198H285.608C285.322 303.198 285.09 303.43 285.09 303.716V305.862C285.09 306.148 285.322 306.379 285.608 306.379H289.875C290.161 306.379 290.393 306.148 290.393 305.862V303.716C290.393 303.43 290.161 303.198 289.875 303.198Z" fill="#3F3D56"/>
<path d="M300.481 303.198H296.214C295.928 303.198 295.696 303.43 295.696 303.716V305.862C295.696 306.148 295.928 306.379 296.214 306.379H300.481C300.767 306.379 300.999 306.148 300.999 305.862V303.716C300.999 303.43 300.767 303.198 300.481 303.198Z" fill="#3F3D56"/>
<path d="M311.086 303.198H306.819C306.533 303.198 306.301 303.43 306.301 303.716V305.862C306.301 306.148 306.533 306.379 306.819 306.379H311.086C311.372 306.379 311.604 306.148 311.604 305.862V303.716C311.604 303.43 311.372 303.198 311.086 303.198Z" fill="#3F3D56"/>
<path d="M321.692 303.198H317.425C317.139 303.198 316.907 303.43 316.907 303.716V305.862C316.907 306.148 317.139 306.379 317.425 306.379H321.692C321.978 306.379 322.21 306.148 322.21 305.862V303.716C322.21 303.43 321.978 303.198 321.692 303.198Z" fill="#3F3D56"/>
<path d="M332.297 303.198H328.03C327.744 303.198 327.512 303.43 327.512 303.716V305.862C327.512 306.148 327.744 306.379 328.03 306.379H332.297C332.583 306.379 332.815 306.148 332.815 305.862V303.716C332.815 303.43 332.583 303.198 332.297 303.198Z" fill="#3F3D56"/>
<path d="M342.903 303.198H338.636C338.35 303.198 338.118 303.43 338.118 303.716V305.862C338.118 306.148 338.35 306.379 338.636 306.379H342.903C343.189 306.379 343.421 306.148 343.421 305.862V303.716C343.421 303.43 343.189 303.198 342.903 303.198Z" fill="#3F3D56"/>
<path d="M353.508 303.198H349.241C348.955 303.198 348.723 303.43 348.723 303.716V305.862C348.723 306.148 348.955 306.379 349.241 306.379H353.508C353.794 306.379 354.026 306.148 354.026 305.862V303.716C354.026 303.43 353.794 303.198 353.508 303.198Z" fill="#3F3D56"/>
<path d="M194.3 308.501H190.033C189.747 308.501 189.515 308.732 189.515 309.018V311.164C189.515 311.45 189.747 311.682 190.033 311.682H194.3C194.586 311.682 194.818 311.45 194.818 311.164V309.018C194.818 308.732 194.586 308.501 194.3 308.501Z" fill="#3F3D56"/>
<path d="M204.906 308.501H200.638C200.352 308.501 200.121 308.732 200.121 309.018V311.164C200.121 311.45 200.352 311.682 200.638 311.682H204.906C205.192 311.682 205.423 311.45 205.423 311.164V309.018C205.423 308.732 205.192 308.501 204.906 308.501Z" fill="#3F3D56"/>
<path d="M215.511 308.501H211.244C210.958 308.501 210.726 308.732 210.726 309.018V311.164C210.726 311.45 210.958 311.682 211.244 311.682H215.511C215.797 311.682 216.029 311.45 216.029 311.164V309.018C216.029 308.732 215.797 308.501 215.511 308.501Z" fill="#3F3D56"/>
<path d="M226.117 308.501H221.849C221.564 308.501 221.332 308.732 221.332 309.018V311.164C221.332 311.45 221.564 311.682 221.849 311.682H226.117C226.403 311.682 226.634 311.45 226.634 311.164V309.018C226.634 308.732 226.403 308.501 226.117 308.501Z" fill="#3F3D56"/>
<path d="M236.722 308.501H232.455C232.169 308.501 231.937 308.732 231.937 309.018V311.164C231.937 311.45 232.169 311.682 232.455 311.682H236.722C237.008 311.682 237.24 311.45 237.24 311.164V309.018C237.24 308.732 237.008 308.501 236.722 308.501Z" fill="#3F3D56"/>
<path d="M247.328 308.501H243.061C242.775 308.501 242.543 308.732 242.543 309.018V311.164C242.543 311.45 242.775 311.682 243.061 311.682H247.328C247.614 311.682 247.846 311.45 247.846 311.164V309.018C247.846 308.732 247.614 308.501 247.328 308.501Z" fill="#3F3D56"/>
<path d="M257.933 308.501H253.666C253.38 308.501 253.148 308.732 253.148 309.018V311.164C253.148 311.45 253.38 311.682 253.666 311.682H257.933C258.219 311.682 258.451 311.45 258.451 311.164V309.018C258.451 308.732 258.219 308.501 257.933 308.501Z" fill="#3F3D56"/>
<path d="M268.539 308.501H264.272C263.986 308.501 263.754 308.732 263.754 309.018V311.164C263.754 311.45 263.986 311.682 264.272 311.682H268.539C268.825 311.682 269.057 311.45 269.057 311.164V309.018C269.057 308.732 268.825 308.501 268.539 308.501Z" fill="#3F3D56"/>
<path d="M279.144 308.501H274.877C274.591 308.501 274.359 308.732 274.359 309.018V311.164C274.359 311.45 274.591 311.682 274.877 311.682H279.144C279.43 311.682 279.662 311.45 279.662 311.164V309.018C279.662 308.732 279.43 308.501 279.144 308.501Z" fill="#3F3D56"/>
<path d="M289.75 308.501H285.483C285.197 308.501 284.965 308.732 284.965 309.018V311.164C284.965 311.45 285.197 311.682 285.483 311.682H289.75C290.036 311.682 290.268 311.45 290.268 311.164V309.018C290.268 308.732 290.036 308.501 289.75 308.501Z" fill="#3F3D56"/>
<path d="M300.355 308.501H296.088C295.802 308.501 295.57 308.732 295.57 309.018V311.164C295.57 311.45 295.802 311.682 296.088 311.682H300.355C300.641 311.682 300.873 311.45 300.873 311.164V309.018C300.873 308.732 300.641 308.501 300.355 308.501Z" fill="#3F3D56"/>
<path d="M310.961 308.501H306.694C306.408 308.501 306.176 308.732 306.176 309.018V311.164C306.176 311.45 306.408 311.682 306.694 311.682H310.961C311.247 311.682 311.479 311.45 311.479 311.164V309.018C311.479 308.732 311.247 308.501 310.961 308.501Z" fill="#3F3D56"/>
<path d="M321.567 308.501H317.299C317.013 308.501 316.782 308.732 316.782 309.018V311.164C316.782 311.45 317.013 311.682 317.299 311.682H321.567C321.852 311.682 322.084 311.45 322.084 311.164V309.018C322.084 308.732 321.852 308.501 321.567 308.501Z" fill="#3F3D56"/>
<path d="M332.172 308.501H327.905C327.619 308.501 327.387 308.732 327.387 309.018V311.164C327.387 311.45 327.619 311.682 327.905 311.682H332.172C332.458 311.682 332.69 311.45 332.69 311.164V309.018C332.69 308.732 332.458 308.501 332.172 308.501Z" fill="#3F3D56"/>
<path d="M342.778 308.501H338.51C338.224 308.501 337.993 308.732 337.993 309.018V311.164C337.993 311.45 338.224 311.682 338.51 311.682H342.778C343.064 311.682 343.295 311.45 343.295 311.164V309.018C343.295 308.732 343.064 308.501 342.778 308.501Z" fill="#3F3D56"/>
<path d="M353.383 308.501H349.116C348.83 308.501 348.598 308.732 348.598 309.018V311.164C348.598 311.45 348.83 311.682 349.116 311.682H353.383C353.669 311.682 353.901 311.45 353.901 311.164V309.018C353.901 308.732 353.669 308.501 353.383 308.501Z" fill="#3F3D56"/>
<path d="M282.326 314.864H240.939C240.653 314.864 240.422 315.096 240.422 315.382V317.528C240.422 317.814 240.653 318.045 240.939 318.045H282.326C282.612 318.045 282.844 317.814 282.844 317.528V315.382C282.844 315.096 282.612 314.864 282.326 314.864Z" fill="#3F3D56"/>
<path d="M399.742 58.6139H128.957C128.676 58.6077 128.408 58.4915 128.211 58.2902C128.014 58.089 127.904 57.8186 127.904 57.537C127.904 57.2555 128.014 56.9851 128.211 56.7838C128.408 56.5826 128.676 56.4664 128.957 56.4602H399.742C400.023 56.4664 400.291 56.5826 400.488 56.7838C400.685 56.9851 400.795 57.2555 400.795 57.537C400.795 57.8186 400.685 58.089 400.488 58.2902C400.291 58.4915 400.023 58.6077 399.742 58.6139Z" fill="#3F3D56"/>
<path d="M147.39 50.9621C150.875 50.9621 153.701 48.0737 153.701 44.5107C153.701 40.9477 150.875 38.0593 147.39 38.0593C143.905 38.0593 141.079 40.9477 141.079 44.5107C141.079 48.0737 143.905 50.9621 147.39 50.9621Z" fill="#3F3D56"/>
<path d="M169.191 50.9621C172.676 50.9621 175.502 48.0737 175.502 44.5107C175.502 40.9477 172.676 38.0593 169.191 38.0593C165.705 38.0593 162.88 40.9477 162.88 44.5107C162.88 48.0737 165.705 50.9621 169.191 50.9621Z" fill="#3F3D56"/>
<path d="M190.992 50.9621C194.477 50.9621 197.302 48.0737 197.302 44.5107C197.302 40.9477 194.477 38.0593 190.992 38.0593C187.506 38.0593 184.681 40.9477 184.681 44.5107C184.681 48.0737 187.506 50.9621 190.992 50.9621Z" fill="#3F3D56"/>
<path d="M386.614 39.6547H371.13C370.824 39.6618 370.533 39.7884 370.319 40.0074C370.105 40.2264 369.985 40.5204 369.985 40.8266C369.985 41.1328 370.105 41.4268 370.319 41.6458C370.533 41.8648 370.824 41.9914 371.13 41.9985H386.614C386.922 41.9942 387.216 41.8688 387.432 41.6495C387.648 41.4302 387.769 41.1346 387.769 40.8266C387.769 40.5186 387.648 40.223 387.432 40.0037C387.216 39.7844 386.922 39.659 386.614 39.6547Z" fill="#3F3D56"/>
<path d="M386.614 44.056H371.13C370.823 44.0628 370.532 44.1892 370.318 44.4082C370.103 44.6273 369.983 44.9215 369.983 45.2279C369.983 45.5343 370.103 45.8285 370.318 46.0475C370.532 46.2666 370.823 46.393 371.13 46.3998H386.614C386.922 46.3961 387.217 46.271 387.433 46.0516C387.65 45.8322 387.772 45.5363 387.772 45.2279C387.772 44.9195 387.65 44.6235 387.433 44.4042C387.217 44.1848 386.922 44.0597 386.614 44.056Z" fill="#3F3D56"/>
<path d="M386.614 48.4573H371.13C370.824 48.4644 370.533 48.591 370.319 48.81C370.105 49.029 369.985 49.323 369.985 49.6292C369.985 49.9353 370.105 50.2294 370.319 50.4484C370.533 50.6674 370.824 50.794 371.13 50.8011H386.614C386.922 50.7967 387.216 50.6714 387.432 50.4521C387.648 50.2328 387.769 49.9371 387.769 49.6292C387.769 49.3212 387.648 49.0256 387.432 48.8063C387.216 48.587 386.922 48.4616 386.614 48.4573Z" fill="#3F3D56"/>
<path d="M152.306 83.6393H146.742C145.055 83.6393 143.688 85.0068 143.688 86.6936C143.688 88.3805 145.055 89.748 146.742 89.748H152.306C153.993 89.748 155.36 88.3805 155.36 86.6936C155.36 85.0068 153.993 83.6393 152.306 83.6393Z" fill="#E6E6E6"/>
<path d="M215.939 83.6393H210.375C208.689 83.6393 207.321 85.0068 207.321 86.6936C207.321 88.3805 208.689 89.748 210.375 89.748H215.939C217.626 89.748 218.994 88.3805 218.994 86.6936C218.994 85.0068 217.626 83.6393 215.939 83.6393Z" fill="#E6E6E6"/>
<path d="M233.969 83.6393H228.405C226.718 83.6393 225.35 85.0068 225.35 86.6936C225.35 88.3805 226.718 89.748 228.405 89.748H233.969C235.656 89.748 237.023 88.3805 237.023 86.6936C237.023 85.0068 235.656 83.6393 233.969 83.6393Z" fill="#E6E6E6"/>
<path d="M198.631 83.1301H164.051C162.364 83.1301 160.996 84.4975 160.996 86.1844C160.996 87.8713 162.364 89.2388 164.051 89.2388H198.631C200.318 89.2388 201.685 87.8713 201.685 86.1844C201.685 84.4975 200.318 83.1301 198.631 83.1301Z" fill="#E6E6E6"/>
<path d="M283.475 83.1301H248.895C247.208 83.1301 245.841 84.4975 245.841 86.1844C245.841 87.8713 247.208 89.2388 248.895 89.2388H283.475C285.162 89.2388 286.529 87.8713 286.529 86.1844C286.529 84.4975 285.162 83.1301 283.475 83.1301Z" fill="#E6E6E6"/>
<path d="M169.275 97.4265H163.711C162.024 97.4265 160.657 98.794 160.657 100.481C160.657 102.168 162.024 103.535 163.711 103.535H169.275C170.962 103.535 172.329 102.168 172.329 100.481C172.329 98.794 170.962 97.4265 169.275 97.4265Z" fill="#E6E6E6"/>
<path d="M232.908 97.4265H227.344C225.657 97.4265 224.29 98.794 224.29 100.481C224.29 102.168 225.657 103.535 227.344 103.535H232.908C234.595 103.535 235.962 102.168 235.962 100.481C235.962 98.794 234.595 97.4265 232.908 97.4265Z" fill="#E6E6E6"/>
<path d="M250.938 97.4265H245.374C243.687 97.4265 242.319 98.794 242.319 100.481C242.319 102.168 243.687 103.535 245.374 103.535H250.938C252.624 103.535 253.992 102.168 253.992 100.481C253.992 98.794 252.624 97.4265 250.938 97.4265Z" fill="#E6E6E6"/>
<path d="M215.6 96.9173H181.019C179.333 96.9173 177.965 98.2847 177.965 99.9716C177.965 101.658 179.333 103.026 181.019 103.026H215.6C217.286 103.026 218.654 101.658 218.654 99.9716C218.654 98.2847 217.286 96.9173 215.6 96.9173Z" fill="#E6E6E6"/>
<path d="M300.444 96.9173H265.864C264.177 96.9173 262.809 98.2847 262.809 99.9716C262.809 101.658 264.177 103.026 265.864 103.026H300.444C302.131 103.026 303.498 101.658 303.498 99.9716C303.498 98.2847 302.131 96.9173 300.444 96.9173Z" fill="#E6E6E6"/>
<path d="M186.244 111.214H180.68C178.993 111.214 177.626 112.581 177.626 114.268C177.626 115.955 178.993 117.322 180.68 117.322H186.244C187.931 117.322 189.298 115.955 189.298 114.268C189.298 112.581 187.931 111.214 186.244 111.214Z" fill="#E6E6E6"/>
<path d="M249.877 111.214H244.313C242.626 111.214 241.259 112.581 241.259 114.268C241.259 115.955 242.626 117.322 244.313 117.322H249.877C251.564 117.322 252.931 115.955 252.931 114.268C252.931 112.581 251.564 111.214 249.877 111.214Z" fill="#E6E6E6"/>
<path d="M267.906 111.214H262.342C260.656 111.214 259.288 112.581 259.288 114.268C259.288 115.955 260.656 117.322 262.342 117.322H267.906C269.593 117.322 270.961 115.955 270.961 114.268C270.961 112.581 269.593 111.214 267.906 111.214Z" fill="#E6E6E6"/>
<path d="M232.568 110.704H197.988C196.301 110.704 194.934 112.072 194.934 113.759C194.934 115.446 196.301 116.813 197.988 116.813H232.568C234.255 116.813 235.623 115.446 235.623 113.759C235.623 112.072 234.255 110.704 232.568 110.704Z" fill="#E6E6E6"/>
<path d="M317.413 110.704H282.833C281.146 110.704 279.778 112.072 279.778 113.759C279.778 115.446 281.146 116.813 282.833 116.813H317.413C319.1 116.813 320.467 115.446 320.467 113.759C320.467 112.072 319.1 110.704 317.413 110.704Z" fill="#E6E6E6"/>
<path d="M203.213 125.001H197.649C195.962 125.001 194.594 126.368 194.594 128.055C194.594 129.742 195.962 131.11 197.649 131.11H203.213C204.899 131.11 206.267 129.742 206.267 128.055C206.267 126.368 204.899 125.001 203.213 125.001Z" fill="#E6E6E6"/>
<path d="M266.846 125.001H261.282C259.595 125.001 258.228 126.368 258.228 128.055C258.228 129.742 259.595 131.11 261.282 131.11H266.846C268.533 131.11 269.9 129.742 269.9 128.055C269.9 126.368 268.533 125.001 266.846 125.001Z" fill="#E6E6E6"/>
<path d="M284.875 125.001H279.311C277.624 125.001 276.257 126.368 276.257 128.055C276.257 129.742 277.624 131.11 279.311 131.11H284.875C286.562 131.11 287.93 129.742 287.93 128.055C287.93 126.368 286.562 125.001 284.875 125.001Z" fill="#E6E6E6"/>
<path d="M249.537 124.492H214.957C213.27 124.492 211.903 125.859 211.903 127.546C211.903 129.233 213.27 130.6 214.957 130.6H249.537C251.224 130.6 252.592 129.233 252.592 127.546C252.592 125.859 251.224 124.492 249.537 124.492Z" fill="#E6E6E6"/>
<path d="M215.939 179.825H210.375C208.689 179.825 207.321 181.192 207.321 182.879C207.321 184.566 208.689 185.933 210.375 185.933H215.939C217.626 185.933 218.994 184.566 218.994 182.879C218.994 181.192 217.626 179.825 215.939 179.825Z" fill="#E6E6E6"/>
<path d="M233.969 179.825H228.405C226.718 179.825 225.35 181.192 225.35 182.879C225.35 184.566 226.718 185.933 228.405 185.933H233.969C235.656 185.933 237.023 184.566 237.023 182.879C237.023 181.192 235.656 179.825 233.969 179.825Z" fill="#E6E6E6"/>
<path d="M283.475 180.334H248.895C247.208 180.334 245.841 181.701 245.841 183.388C245.841 185.075 247.208 186.443 248.895 186.443H283.475C285.162 186.443 286.529 185.075 286.529 183.388C286.529 181.701 285.162 180.334 283.475 180.334Z" fill="#E6E6E6"/>
<path d="M152.306 179.825H146.742C145.055 179.825 143.688 181.192 143.688 182.879C143.688 184.566 145.055 185.933 146.742 185.933H152.306C153.993 185.933 155.36 184.566 155.36 182.879C155.36 181.192 153.993 179.825 152.306 179.825Z" fill="#E6E6E6"/>
<path d="M198.631 180.334H164.051C162.364 180.334 160.996 181.701 160.996 183.388C160.996 185.075 162.364 186.443 164.051 186.443H198.631C200.318 186.443 201.685 185.075 201.685 183.388C201.685 181.701 200.318 180.334 198.631 180.334Z" fill="#E6E6E6"/>
<path d="M169.275 166.037H163.711C162.024 166.037 160.657 167.405 160.657 169.092C160.657 170.779 162.024 172.146 163.711 172.146H169.275C170.962 172.146 172.329 170.779 172.329 169.092C172.329 167.405 170.962 166.037 169.275 166.037Z" fill="#E6E6E6"/>
<path d="M232.908 166.037H227.344C225.657 166.037 224.29 167.405 224.29 169.092C224.29 170.779 225.657 172.146 227.344 172.146H232.908C234.595 172.146 235.962 170.779 235.962 169.092C235.962 167.405 234.595 166.037 232.908 166.037Z" fill="#E6E6E6"/>
<path d="M250.938 166.037H245.374C243.687 166.037 242.319 167.405 242.319 169.092C242.319 170.779 243.687 172.146 245.374 172.146H250.938C252.624 172.146 253.992 170.779 253.992 169.092C253.992 167.405 252.624 166.037 250.938 166.037Z" fill="#E6E6E6"/>
<path d="M215.6 166.547H181.019C179.333 166.547 177.965 167.914 177.965 169.601C177.965 171.288 179.333 172.655 181.019 172.655H215.6C217.286 172.655 218.654 171.288 218.654 169.601C218.654 167.914 217.286 166.547 215.6 166.547Z" fill="#E6E6E6"/>
<path d="M186.244 152.25H180.68C178.993 152.25 177.626 153.618 177.626 155.305C177.626 156.991 178.993 158.359 180.68 158.359H186.244C187.931 158.359 189.298 156.991 189.298 155.305C189.298 153.618 187.931 152.25 186.244 152.25Z" fill="#E6E6E6"/>
<path d="M249.877 152.25H244.313C242.626 152.25 241.259 153.618 241.259 155.305C241.259 156.991 242.626 158.359 244.313 158.359H249.877C251.564 158.359 252.931 156.991 252.931 155.305C252.931 153.618 251.564 152.25 249.877 152.25Z" fill="#E6E6E6"/>
<path d="M267.906 152.25H262.342C260.656 152.25 259.288 153.618 259.288 155.305C259.288 156.991 260.656 158.359 262.342 158.359H267.906C269.593 158.359 270.961 156.991 270.961 155.305C270.961 153.618 269.593 152.25 267.906 152.25Z" fill="#E6E6E6"/>
<path d="M232.568 152.759H197.988C196.301 152.759 194.934 154.127 194.934 155.814C194.934 157.501 196.301 158.868 197.988 158.868H232.568C234.255 158.868 235.623 157.501 235.623 155.814C235.623 154.127 234.255 152.759 232.568 152.759Z" fill="#E6E6E6"/>
<path d="M203.213 138.463H197.649C195.962 138.463 194.594 139.831 194.594 141.517C194.594 143.204 195.962 144.572 197.649 144.572H203.213C204.899 144.572 206.267 143.204 206.267 141.517C206.267 139.831 204.899 138.463 203.213 138.463Z" fill="#E6E6E6"/>
<path d="M266.846 138.463H261.282C259.595 138.463 258.228 139.831 258.228 141.517C258.228 143.204 259.595 144.572 261.282 144.572H266.846C268.533 144.572 269.9 143.204 269.9 141.517C269.9 139.831 268.533 138.463 266.846 138.463Z" fill="#E6E6E6"/>
<path d="M284.875 138.463H279.311C277.624 138.463 276.257 139.831 276.257 141.517C276.257 143.204 277.624 144.572 279.311 144.572H284.875C286.562 144.572 287.93 143.204 287.93 141.517C287.93 139.831 286.562 138.463 284.875 138.463Z" fill="#E6E6E6"/>
<path d="M249.537 138.972H214.957C213.27 138.972 211.903 140.34 211.903 142.027C211.903 143.714 213.27 145.081 214.957 145.081H249.537C251.224 145.081 252.592 143.714 252.592 142.027C252.592 140.34 251.224 138.972 249.537 138.972Z" fill="#E6E6E6"/>
<path d="M402.989 379C402.342 379.329 401.684 379.658 401.037 379.976C384.281 388.354 370.875 393.116 352.538 398.334C350.99 381.047 349.494 350.662 348.042 331.827C347.66 326.937 347.278 322.833 346.907 319.938C346.813 318.398 346.499 316.88 345.973 315.43L346.037 319.938L346.196 331.827L347.119 399.819C324.309 405.854 300.878 409.231 277.292 409.883C276.062 409.915 274.853 409.936 273.686 409.958C273.273 409.968 272.869 409.979 272.466 409.979C271.141 409.989 269.826 410 268.5 410C243.645 410.018 218.88 407.016 194.749 401.06C195.269 383.953 195.788 353.907 196.287 331.827C196.393 327.51 196.488 323.491 196.594 319.938C196.796 312.344 197.008 306.872 197.21 305.037C197.031 305.362 196.892 305.708 196.796 306.066C195.814 310.639 195.144 315.274 194.792 319.938C194.42 323.491 194.049 327.51 193.678 331.827C191.705 354.766 189.648 385.957 187.527 399.182C174.901 395.736 162.513 391.474 150.439 386.424C144.076 383.773 137.826 380.913 131.689 377.844C132.855 370.208 134.075 361.649 135.326 352.773C136.302 345.89 137.31 338.816 138.338 331.827C139.929 321.03 141.562 310.446 143.217 301.124C145.635 287.506 148.117 276.561 150.577 271.534C152.91 266.762 155.243 262.053 157.502 257.545C158.287 255.965 159.072 254.406 159.836 252.89C160.016 252.529 160.196 252.179 160.377 251.829C161.999 248.637 163.569 245.582 165.064 242.719C166.347 240.269 167.567 237.957 168.723 235.825C171.523 230.65 173.899 226.524 175.659 223.915C183.019 212.751 193.977 204.439 206.712 200.36L207.03 200.276L207.253 200.371L228.941 193.711L232.112 192.735L234.244 192.077L241.753 186.361L245.836 183.254L249.665 180.337L257.152 174.642L303.509 177.495L312.534 199.226L332.748 206.618L333.098 206.459L333.406 206.331L333.724 206.416C346.457 210.499 357.414 218.809 364.777 229.971C365.774 231.466 366.983 233.439 368.351 235.825C369.518 237.851 370.79 240.163 372.169 242.719C374.131 246.357 376.273 250.461 378.543 254.905C379.042 255.88 379.551 256.877 380.06 257.885C381.004 259.751 381.962 261.657 382.934 263.601C385.193 268.109 387.526 272.817 389.859 277.6C391.885 281.747 393.932 290.274 395.947 301.124C397.612 310.138 399.266 320.765 400.868 331.827C402.968 346.165 400.73 363.336 402.628 376.529C402.745 377.367 402.872 378.183 402.989 379Z" fill="#5E027E"/>
<path d="M269.152 157.296C298.929 157.296 323.067 133.158 323.067 103.381C323.067 73.6052 298.929 49.4667 269.152 49.4667C239.376 49.4667 215.238 73.6052 215.238 103.381C215.238 133.158 239.376 157.296 269.152 157.296Z" fill="#E1A9B1"/>
<path d="M358.064 31.9338C356.998 29.446 355.58 27.1243 353.853 25.0402C345.666 15.0392 330.776 10.6379 315.493 22.4737C312.551 21.8164 309.485 21.9927 306.638 22.9828C305.293 23.4695 304.034 24.1637 302.904 25.0402C300.59 26.8454 298.785 29.2209 297.665 31.9338C297.067 33.3667 296.674 34.8771 296.499 36.42C292.721 34.4572 288.723 32.9512 284.589 31.9338C274.445 29.4108 263.838 29.4108 253.695 31.9338C250.444 32.7561 247.314 33.9967 244.383 35.6246C239.42 38.4881 236.567 42.1046 236.058 46.1241C228.899 46.5271 221.454 50.292 215.907 56.4645C215.281 57.1538 214.677 57.875 214.115 58.6174C209.45 64.7208 206.944 72.1999 206.988 79.8815V81.2284H208.335C212.025 81.2248 215.681 81.9379 219.099 83.3283C221.314 84.2181 223.412 85.3756 225.346 86.7751C226.611 87.6726 227.806 88.6654 228.92 89.7446C231.503 92.2455 233.692 95.1241 235.411 98.2821C239.817 106.262 241.345 115.515 239.738 124.488C239.369 126.565 238.83 128.609 238.126 130.597C237.124 133.434 235.804 136.149 234.191 138.689C234.127 138.785 234.074 138.88 234.011 138.976C233.3 140.11 232.621 141.266 231.985 142.433C231.508 143.303 231.062 144.193 230.649 145.084C229.44 147.564 228.419 150.13 227.594 152.763C226.118 157.418 225.249 162.245 225.007 167.123C224.932 168.416 224.911 169.71 224.954 171.004C225.017 174.339 225.382 177.662 226.046 180.931C226.141 181.377 226.237 181.811 226.332 182.257L227.107 185.64L228.941 193.711L230.214 199.268L231.391 204.422L233.131 201.93C233.724 201.082 235.22 198.473 237.224 194.782C238.55 192.374 240.088 189.5 241.753 186.361C244.075 181.96 246.621 177.049 249.113 172.15C250.121 170.166 251.117 168.194 252.083 166.264C253.907 162.605 255.625 159.073 257.099 155.934C258.457 153.039 259.613 150.472 260.472 148.415C260.737 149.761 260.959 151.13 261.129 152.508C261.32 153.908 261.458 155.329 261.532 156.75C261.553 156.963 261.564 157.185 261.575 157.397L261.617 158.267L261.628 158.522L262.752 158.67C269.236 159.364 275.772 159.414 282.266 158.819H282.277C290.879 158.171 299.319 156.126 307.263 152.763C311.775 150.805 315.988 148.22 319.778 145.084C321.548 143.619 323.201 142.016 324.72 140.291C325.102 139.856 325.473 139.421 325.834 138.976C327.932 136.396 329.729 133.585 331.189 130.597C332.167 128.625 332.997 126.584 333.671 124.488C337.744 112.154 337.51 96.7656 332.971 78.4817C334.197 78.2455 335.371 77.793 336.439 77.1453C339.769 75.141 342.081 71.1639 342.802 66.3065L343.948 66.6141C348.008 64.7228 351.625 61.9982 354.564 58.6175C355.146 57.9291 355.691 57.2105 356.197 56.4646C361.383 48.8285 361.426 39.6653 358.064 31.9338Z" fill="#211D1E"/>
<path opacity="0.2" d="M180.813 301.077L189.825 266.299L197.782 296.309L180.813 301.077Z" fill="black"/>
<path d="M420.615 278.417C417.391 322.833 420.732 342.39 402.936 379.011C386.744 386.936 369.878 393.402 352.538 398.334C350.735 398.843 348.929 399.338 347.119 399.819C324.309 405.854 300.878 409.231 277.292 409.883C276.062 409.915 274.853 409.936 273.686 409.958C273.272 409.968 272.869 409.979 272.466 409.979C271.141 409.989 269.826 410 268.5 410C243.645 410.018 218.88 407.016 194.749 401.06C192.331 400.466 189.924 399.84 187.527 399.182C174.901 395.736 162.513 391.474 150.439 386.424C144.076 383.773 137.826 380.913 131.689 377.844C130.299 377.144 128.91 376.444 127.542 375.723C120.51 363.357 116.512 348.318 116.427 330.246C121.295 299.108 409.861 251.564 420.615 278.417Z" fill="#202020"/>
<path opacity="0.2" d="M420.607 286.024C420.771 283.274 420.956 280.433 421.17 277.476C410.416 250.622 121.85 298.167 116.982 329.305C116.996 332.16 117.118 334.93 117.323 337.635C129.112 306.902 403.253 261.714 420.607 286.024Z" fill="black"/>
<path d="M134.972 159.87C135.042 158.909 134.905 157.943 134.571 157.039C134.237 156.134 133.713 155.312 133.035 154.627C132.356 153.942 131.539 153.411 130.637 153.068C129.736 152.726 128.772 152.58 127.81 152.642C127.451 152.655 127.095 152.7 126.744 152.775L84.5742 162.302C83.6318 162.53 82.7478 162.954 81.9791 163.545C81.2103 164.135 80.5738 164.881 80.1106 165.733C79.4922 165.756 78.878 165.845 78.2786 165.999C76.9663 166.296 75.7255 166.849 74.6269 167.626C73.5283 168.403 72.5936 169.389 71.876 170.527C71.1584 171.666 70.672 172.934 70.4446 174.26C70.2172 175.587 70.2533 176.945 70.5507 178.257C70.8482 179.569 71.4012 180.81 72.1782 181.909C72.9552 183.007 73.9409 183.942 75.0792 184.66C77.378 186.109 80.1583 186.585 82.8086 185.985C84.3172 185.635 85.7284 184.952 86.939 183.986L101.229 224.224C101.943 225.485 103.045 226.481 104.372 227.064C105.699 227.646 107.179 227.784 108.59 227.455L136.004 221.26C137.405 220.932 138.665 220.168 139.605 219.079C140.544 217.99 141.115 216.631 141.234 215.197L134.972 159.87ZM82.1757 183.12C80.283 183.547 78.2981 183.206 76.6564 182.172C75.0147 181.138 73.8501 179.495 73.418 177.603C72.9858 175.711 73.3215 173.726 74.3513 172.081C75.3811 170.437 77.021 169.268 78.9115 168.83C79.0446 168.797 79.178 168.83 79.3112 168.797C79.3011 170.011 79.6114 171.206 80.2106 172.261L85.44 181.388C84.5297 182.251 83.4011 182.85 82.1757 183.12Z" fill="black"/>
<path d="M127.81 152.642C128.21 157.971 119.083 164.1 106.858 166.532C95.6328 168.83 85.5734 167.231 82.7419 163.035C83.311 162.697 83.9292 162.45 84.5742 162.302L126.744 152.775C127.095 152.7 127.451 152.655 127.81 152.642Z" fill="#1D1D1D"/>
<path d="M98.6452 287.936L122.331 276.093L102.593 222.799L97.391 195.923C96.7151 192.431 95.1347 189.178 92.8077 186.488C90.4807 183.798 87.4885 181.767 84.1302 180.596C80.7719 179.425 77.1651 179.156 73.6703 179.815C70.1754 180.475 66.9149 182.04 64.2145 184.355C60.2129 187.785 57.7004 192.635 57.2072 197.882C56.714 203.13 58.2787 208.363 61.5711 212.479L80.8808 236.616L98.6452 287.936Z" fill="#E1A9B1"/>
<path d="M122.331 266.224L90.7499 282.014L114.717 357.111C116.438 362.504 119.523 367.36 123.673 371.21C127.824 375.059 132.898 377.771 138.405 379.082C145.195 380.699 152.324 380.111 158.757 377.404C165.19 374.696 170.594 370.01 174.185 364.025L237.739 255.092C242.243 247.585 243.633 238.615 241.613 230.098C239.592 221.58 234.321 214.191 226.926 209.507C222.948 206.988 218.485 205.334 213.826 204.655C209.168 203.975 204.418 204.283 199.887 205.56C195.355 206.837 191.143 209.054 187.525 212.067C183.907 215.079 180.964 218.82 178.887 223.045L140.096 305.701L122.331 266.224Z" fill="#5E027E"/>
<path d="M112.563 198.357C112.505 198.357 112.446 198.348 112.391 198.328L105.496 195.955C105.412 195.926 105.338 195.877 105.278 195.813C105.218 195.748 105.176 195.669 105.154 195.584C105.132 195.498 105.132 195.409 105.154 195.324C105.176 195.238 105.218 195.16 105.278 195.095L110.406 189.512C110.453 189.46 110.51 189.418 110.573 189.388C110.636 189.359 110.704 189.342 110.774 189.339C110.844 189.336 110.914 189.346 110.979 189.37C111.045 189.394 111.105 189.43 111.156 189.478C111.208 189.525 111.249 189.582 111.279 189.645C111.308 189.708 111.325 189.777 111.328 189.847C111.33 189.916 111.32 189.986 111.295 190.051C111.271 190.117 111.234 190.177 111.187 190.228L106.607 195.215L112.736 197.326C112.854 197.367 112.955 197.448 113.019 197.556C113.083 197.664 113.107 197.791 113.086 197.915C113.066 198.038 113.002 198.151 112.906 198.232C112.81 198.313 112.689 198.357 112.563 198.357Z" fill="#FFC700"/>
<path d="M122.015 196.423C121.909 196.423 121.806 196.391 121.718 196.332C121.631 196.273 121.563 196.189 121.523 196.091C121.483 195.993 121.474 195.886 121.496 195.783C121.518 195.679 121.57 195.585 121.646 195.511L126.307 191.005L120.046 188.425C119.981 188.399 119.923 188.36 119.873 188.311C119.824 188.262 119.785 188.203 119.758 188.139C119.731 188.075 119.717 188.006 119.717 187.936C119.717 187.866 119.73 187.797 119.757 187.733C119.783 187.668 119.822 187.61 119.872 187.561C119.921 187.511 119.979 187.472 120.044 187.445C120.108 187.419 120.177 187.405 120.247 187.405C120.316 187.405 120.385 187.419 120.45 187.445L127.459 190.334C127.541 190.367 127.613 190.421 127.668 190.489C127.724 190.557 127.762 190.638 127.778 190.724C127.795 190.811 127.79 190.9 127.763 190.984C127.736 191.068 127.689 191.144 127.626 191.205L122.383 196.274C122.284 196.369 122.152 196.423 122.015 196.423Z" fill="#FFC700"/>
<path d="M114.011 201.601C113.958 201.601 113.905 201.593 113.855 201.577C113.788 201.557 113.726 201.524 113.673 201.479C113.619 201.435 113.575 201.38 113.542 201.319C113.509 201.257 113.489 201.19 113.483 201.12C113.476 201.051 113.483 200.981 113.504 200.915L118.398 185.006C118.44 184.872 118.533 184.76 118.657 184.695C118.782 184.63 118.927 184.616 119.061 184.657C119.195 184.699 119.307 184.792 119.373 184.916C119.439 185.04 119.453 185.185 119.412 185.319L114.518 201.227C114.484 201.336 114.417 201.43 114.326 201.498C114.235 201.565 114.124 201.601 114.011 201.601Z" fill="#FFC700"/>
</g>
<defs>
<clipPath id="clip0_1_2">
<rect width="528" height="410" fill="white"/>
</clipPath>
</defs>
</svg>
